<svg id="Layer_1" data-name="Layer 1" xmlns="http://www.w3.org/2000/svg" viewBox="0 0 1080 937.21"><defs><style>.cls-1{fill:#fff;}</style></defs><path class="cls-1" d="M515.84,158.05c137-121.62,293.7-97.47,384.83-34.4,107,74,155.31,204.39,118.28,328.27-75.81-51.81-157.49-70-246.32-42.85C715.1,426.66,669,460.39,633.47,508.7c-63,85.75-85.19,230.06,27.12,351.5l-149.1,148.41a149.17,149.17,0,0,1-11.4-10Q301.61,800.29,103.37,601.71C2.56,500.16-26.22,370.3,24.56,253.57,103.43,72.25,331.08,14,487.41,135.09,496.52,142.15,505.35,149.57,515.84,158.05Z" transform="translate(0 -71.39)"/><path class="cls-1" d="M853,893.88c-125.46.33-228.22-102-227.81-226.92.41-125.31,102.53-226.29,228.57-226,123.69.25,225.67,101.83,226.22,225.35C1080.56,791.71,979,893.55,853,893.88ZM832.91,547.55c-5.76,2.54-9.53,4.5-13.49,5.9-29.79,10.57-48.32,30.6-48.6,63-.28,31.86,20.49,49.19,47.35,60.8,14.5,6.26,30.19,10.54,43.3,18.91,7.58,4.84,17,18.09,15,23.88-3,8.48-15.36,19.13-23.81,19.19-23.67.19-47.39-4.58-74-7.74-2.73,10-6.2,22.81-10.66,39.18l63.35,17.76c1.44,11.6,2.69,21.7,4.15,33.48l34-2.11c-3.85-25.94,5.7-39.61,29.39-48.14,24.65-8.87,36.27-30.49,37.13-57.45.88-27.33-11.2-46.94-34.68-59.12-17.72-9.19-37.23-15.08-54.46-25-7.81-4.5-12-15.26-17.85-23.18,8.9-6.14,17.68-17.17,26.73-17.4,19.29-.48,38.71,4.65,60.43,7.83,2.76-12.4,5.6-25.16,8.9-40l-51.32-13c-2-10.58-3.79-20.49-5.89-31.82L835.56,515C834.59,526.94,833.83,536.3,832.91,547.55Z" transform="translate(0 -71.39)"/></svg>