<svg id="Layer_1" data-name="Layer 1" xmlns="http://www.w3.org/2000/svg" viewBox="0 0 1079.81 1024.4"><defs><style>.cls-1{fill:#fff;}</style></defs><path class="cls-1" d="M.34,1052.2c0-19.62-.61-38.72.11-57.77C3,927.77,13.88,862.54,34.86,799.12c25-75.63,61.74-144.68,115.92-203.64,48.2-52.45,105.07-91.58,175-109,85.17-21.25,164.53-5.67,238.59,40.16a30.59,30.59,0,0,1,2.47,2.09c-2.69,1-4.78,1.85-6.91,2.55C537,538.85,516,549.79,498.66,566.94a117.47,117.47,0,0,0-31.8,56.26c-7.11,28.87-7.73,58-.56,86.88C477.86,756.62,509.23,784,553.73,798c23.84,7.49,48.36,10,73.27,9.3,2.2-.06,4.4,0,6.69,0,1.14,13.22,1.71,26.21,3.49,39,5.17,37.21,19.12,70.22,48.24,95.31,25.58,22.05,56.13,32.47,89.12,36.7,5.57.72,11.26.63,16.76,1.64,1.87.34,4.76,2.89,4.78,4.46.31,22.44.21,44.89.21,67.74Z" transform="translate(-0.1 -27.8)"/><path class="cls-1" d="M402.71,421.06c-89.31.16-168.39-57.43-193.41-140.84C180.88,185.49,228.07,85.61,320.44,45,416,2.86,529.66,40.73,579.6,131.31c53.1,96.33,14.91,217.92-84,267.5A204.16,204.16,0,0,1,402.71,421.06Z" transform="translate(-0.1 -27.8)"/><path class="cls-1" d="M749.05,571.11c0-32.09-.07-62.87.07-93.66a101.38,101.38,0,0,1,1.43-18.1c6.88-36.9,42.4-63.65,80.27-60.71,40.52,3.14,71.38,33.92,72.12,72.86.57,30.13.15,60.28.17,90.42v8.72c3.11.18,5.7.45,8.29.45,30.36,0,60.73-.13,91.09.06,42.24.27,76.23,32.3,77.38,72.64,1.22,42.45-32.86,77.48-76.2,77.88-30.59.29-61.18.06-91.77.06H903v8.55c0,29.69.21,59.38-.07,89.07-.35,38.72-29.12,70-68.17,74.6-38.15,4.5-74.12-19.67-83.39-56.46a88.41,88.41,0,0,1-2.31-20.67c-.25-29-.11-58-.11-87.05v-8h-8.7c-30.59,0-61.18.21-91.77-.05-49-.42-84.6-43.94-74.78-91,7.15-34.28,38.64-59.28,75.47-59.54,30.36-.22,60.73,0,91.09,0Z" transform="translate(-0.1 -27.8)"/></svg>