<svg id="Layer_1" data-name="Layer 1" xmlns="http://www.w3.org/2000/svg" viewBox="0 0 1080 263.44"><defs><style>.cls-1{fill:#253b7f;}.cls-2{fill:#1797d3;}.cls-3{fill:#253a7f;}.cls-4{fill:#1798d3;}.cls-5{fill:#253a7e;}.cls-6{fill:#222d65;}.cls-7{fill:#1797d2;}</style></defs><path class="cls-1" d="M149,408.28c.38,2.17,2.25,1.59,3.57,1.83,10.27,1.83,20.19,4.61,29,10.48,16.91,11.28,24.63,32.25,19.77,53.58-11.54-4.08-23.46-6.85-35.66-7.08-23.46-.43-46.93-.17-70.4-.1-6.7,0-10.23,3.25-11.29,9.88q-6.18,38.7-12.36,77.42c-.26,1.67-.39,3.29.65,4.77a21.4,21.4,0,0,0-2.51,7.19c-2.21,13.94-4.35,27.89-6.58,41.82-1.83,11.41-3.75,22.79-5.63,34.19-14.38,0-28.76,0-43.14,0-5,0-10.09.4-14.42-2.93V626.72c2.1-.45,1.61-2.27,1.82-3.62C11.51,561.88,21,500.63,31,439.46c1.75-10.7.24-22.72,9.65-31.18Z" transform="translate(0 -408.28)"/><path class="cls-2" d="M806.41,467.12c12.34.43,27-1.22,41.43,1.7,16.06,3.24,28.66,10.84,33.08,27.92,10.1,39-17.66,77.65-57.59,80.41-8.87.61-17.73.46-26.61.54-7.42.06-9.84,2.26-11,9.61-2,13.06-4.21,26.1-6.16,39.17-.64,4.26-2.69,6.51-7.07,6.5-9.48,0-19,.07-28.43,0-4.67-.05-6.59-2.4-5.88-6.92q11.91-75.21,23.86-150.41c1-6.21,3.72-8.45,10.1-8.48C782.83,467.08,793.51,467.12,806.41,467.12Zm-2.56,77.53c3.29-.2,6.61-.24,9.88-.61,16.29-1.87,23.59-10,23.75-26.45.08-9.3-4.24-14.53-13.34-16.34-5.8-1.15-11.65-.89-17.5-.92-6.31,0-7.34,1-8.3,7.36-1.27,8.44-2.63,16.87-3.91,25.32-.54,3.54-2.54,8.11-1.06,10.4C795.24,546.31,800.25,543.92,803.85,544.65Z" transform="translate(0 -408.28)"/><path class="cls-3" d="M379.78,467.1c12.53.44,27.35-1.24,41.93,1.76,15.89,3.26,28.38,10.78,32.83,27.68a64.3,64.3,0,0,1-57.86,80.63c-9,.6-18.05.44-27.07.57-6.35.1-9,2.35-10,8.66q-2.91,18-5.65,36.08c-1.28,8.42-3.6,10.48-12.15,10.49-7.68,0-15.35,0-23,0-5.82-.05-7.62-2.22-6.74-7.82q11.6-73.49,23.18-147c1.48-9.36,3.47-11,13-11Zm-2.29,77.42v.14c3.3-.19,6.62-.21,9.9-.61,16.55-2,23.86-10.38,23.7-27-.09-8.87-4.32-13.92-13.05-15.72-5.95-1.23-12-1-18-1s-7.06,1.09-8,6.81c-1.4,8.9-2.78,17.81-4.26,26.7-1.77,10.68-1.81,10.68,9.19,10.67Z" transform="translate(0 -408.28)"/><path class="cls-4" d="M57.56,642.26c1.88-11.4,3.8-22.78,5.63-34.19,2.23-13.93,4.37-27.88,6.58-41.82a21.4,21.4,0,0,1,2.51-7.19c3.34-3.52,7.5-4.55,12.25-4.61,12.47-.17,24.94.45,37.42-.7,38.87-3.58,64.91-24.72,75.88-62.13,1.55-5.29,2.95-10.62,4.43-15.93,13.08,7.25,19.69,18.69,20.83,33.27a93.33,93.33,0,0,1-11.4,52.59c-12.91,23.79-34.41,33.79-60.26,36.23-6.14.57-12.33.52-18.49.74-6.54.23-10,3-11.06,9.57q-4.17,25.35-8.08,50.74c-1.55,10.07-4.63,12.85-14.84,12.86-12,0-24.08,0-36.12,0-7.31,0-9.49-2.7-8.31-9.83C55.61,655.33,56.55,648.79,57.56,642.26Z" transform="translate(0 -408.28)"/><path class="cls-2" d="M973.81,534.35c2.54-11-.22-12.32,13.86-12.06,6.31.12,12.63,0,19,0,6,.06,7.66,1.88,6.75,7.7q-7.33,47.19-14.81,94.35c-1,6.17-3.86,8.54-10.12,8.59-7.22,0-14.43,0-21.65,0-6.41,0-7.81-1.75-7-8.29.16-1.26.7-2.58-.18-4.18a57.84,57.84,0,0,1-26.91,13.84,57.25,57.25,0,0,1-28.1-1c-18.08-5.31-27.42-18.47-30.27-36.2a67.21,67.21,0,0,1,52.53-76.35,63.91,63.91,0,0,1,31.22,1.55A25.53,25.53,0,0,1,973.81,534.35Zm-37.28,70.82c16.11,0,28.55-9.89,32.07-25.58,3.43-15.26-4.87-27.58-19.82-29.43a32.18,32.18,0,0,0-35.87,27.9C910.76,594.66,919.89,605.14,936.53,605.17Z" transform="translate(0 -408.28)"/><path class="cls-3" d="M533.31,621.18c-1.8.15-2.76,1.66-4,2.61-15.54,11.58-32.77,14.68-51.27,9.43-17.77-5.06-26.88-18.19-29.91-35.55C441.93,562.4,465.62,528,500.6,520.8a64.37,64.37,0,0,1,31.24,1.62,25.61,25.61,0,0,1,13.44,8.66c.52.66,1,1.73,2.05,1.39s.79-1.48,1-2.31c1.87-7.69,2.09-7.88,9.9-7.88,7.38,0,14.75-.07,22.12,0,5.88.07,7.6,2,6.68,7.87q-7.34,47.22-14.89,94.41c-1,5.95-3.87,8.29-9.86,8.36-7.07.08-14.15,0-21.22,0s-8.37-1.59-7.5-8.68C533.67,623.28,534,622.22,533.31,621.18Zm-23.08-16c16.27,0,28.85-10.15,32.15-26,3.22-15.46-5.59-27.74-20.83-29.06a32.12,32.12,0,0,0-34.89,27.55C484.18,594.3,493.45,605.12,510.23,605.15Z" transform="translate(0 -408.28)"/><path class="cls-5" d="M659.43,583.16c2.18-1,2.78-2.66,3.69-4,11.53-16.89,23.11-33.75,34.45-50.77,2.91-4.35,6.46-6.31,11.63-6.18,7.66.19,15.34,0,23,0,2.75,0,5.6,0,7,2.93,1.3,2.7-.15,4.9-1.64,7.06Q691,599.34,644.53,666.45a11.06,11.06,0,0,1-9.82,5.27c-8.28-.07-16.55,0-24.82,0-2.5,0-5-.31-6.25-2.76-1.39-2.63-.12-4.88,1.43-7.07,8.47-11.87,16.79-23.86,25.41-35.62a9.14,9.14,0,0,0,1.45-9.49c-9.8-28.26-19.41-56.58-29.06-84.89-2.42-7.1-.74-9.52,6.69-9.58s14.75,0,22.12,0c7.69,0,9.84,1.59,12,8.84q7.15,23.75,14.25,47.5C658.38,580.05,658.87,581.45,659.43,583.16Z" transform="translate(0 -408.28)"/><path class="cls-6" d="M202.26,475.69c-1.48,5.31-2.88,10.64-4.43,15.93-11,37.41-37,58.55-75.88,62.13-12.48,1.15-25,.53-37.42.7-4.75.06-8.91,1.09-12.25,4.61-1-1.48-.91-3.1-.65-4.77q6.2-38.71,12.36-77.42c1.06-6.63,4.59-9.86,11.29-9.88,23.47-.07,46.94-.33,70.4.1,12.2.23,24.12,3,35.66,7.08C201.65,474.67,202,475.18,202.26,475.69Z" transform="translate(0 -408.28)"/><path class="cls-7" d="M1061.35,467.07c4.21,0,8.42-.11,12.63,0,4.65.15,6.59,2.46,5.87,7q-9.13,57.85-18.34,115.68c-1.86,11.72-3.66,23.45-5.63,35.14-1,5.7-3.79,8-9.57,8-7.37.07-14.74.09-22.11,0-4.88-.06-6.67-2.34-5.9-7.23q12-76.34,23.92-152.66c.64-4.1,2.73-6.11,7-6C1053.22,467.14,1057.29,467.06,1061.35,467.07Z" transform="translate(0 -408.28)"/></svg>